<?xml version="1.0" encoding="UTF-8"?>
<!DOCTYPE svg PUBLIC "-//W3C//DTD SVG 1.1//EN" "http://www.w3.org/Graphics/SVG/1.1/DTD/svg11.dtd">
<svg version="1.1" xmlns="http://www.w3.org/2000/svg" xmlns:xlink="http://www.w3.org/1999/xlink" width="1077" height="2334"  xml:space="preserve" id="canvas2">
    <!-- Generated by PaintCode - http://www.paintcodeapp.com -->
    <path id="canvas2-rectangle" stroke="rgb(38, 38, 38)" stroke-width="52" stroke-miterlimit="10" fill="none" d="M 201.42,23 L 875.58,23 C 926.95,23 952.64,23 975.81,30.92 L 980.29,32.06 C 1010.49,43.45 1034.27,68.09 1045.26,99.38 1054,128.04 1054,154.65 1054,207.89 L 1054,2126.11 C 1054,2179.35 1054,2205.96 1046.36,2229.97 L 1045.26,2234.62 C 1034.27,2265.91 1010.49,2290.55 980.29,2301.94 952.64,2311 926.95,2311 875.58,2311 L 201.42,2311 C 150.05,2311 124.36,2311 101.19,2303.08 L 96.71,2301.94 C 66.51,2290.55 42.73,2265.91 31.74,2234.62 23,2205.96 23,2179.35 23,2126.11 L 23,207.89 C 23,154.65 23,128.04 30.64,104.03 L 31.74,99.38 C 42.73,68.09 66.51,43.45 96.71,32.06 124.36,23 150.05,23 201.42,23 Z M 201.42,23" />
    <path id="canvas2-bezier3" stroke="none" fill="rgb(37, 37, 37)" d="M 348.13,45.32 L 770.87,45.32 770.87,82.89 770.87,82.89 770.87,84.76 C 770.87,99.47 763.17,112.61 751.6,117.64 744.14,120.45 737.22,120.45 723.37,120.45 L 451.12,120.45 C 340.5,120.45 333.58,120.45 327.33,117.99 L 326.12,117.64 C 314.55,112.61 306.85,99.47 306.85,84.76 306.85,82.89 306.85,82.89 306.85,82.89 L 306.85,82.89 306.85,45.32 348.13,45.32 Z M 306.85,45.33 C 306.85,45.32 306.85,61.75 306.85,61.75 306.85,61.75 306.85,68.64 306.85,73.49 306.85,76.14 306.85,78.19 306.85,78.19 L 306.55,78.19 C 306.75,76.66 306.85,75.09 306.85,73.49 306.85,58.79 306.07,46.61 295.05,45.32 L 306.85,45.32 306.85,45.33 Z M 770.87,45.33 C 770.87,45.32 770.87,61.75 770.87,61.75 770.87,61.75 770.87,68.64 770.87,73.49 770.87,76.14 770.87,78.19 770.87,78.19 L 771.17,78.19 C 770.97,76.66 770.87,75.09 770.87,73.49 770.87,58.79 771.65,46.61 782.67,45.32 L 770.87,45.32 770.87,45.33 Z M 770.87,45.33" />
</svg>

